<svg id="Layer_1" data-name="Layer 1" xmlns="http://www.w3.org/2000/svg" viewBox="0 0 639.2 588.97"><defs><style>.cls-1{fill:#231f20;}.cls-2{fill:#fff;}</style></defs><path class="cls-1" d="M180,290.15c1.34-33.6,15-60.46,29.31-80-38.53-41.59-80.75-85.66-120.84-128-1,5.63,0,9.53-.73,15.71-3.41,31.08-16,60.71-25,90.13-9.44,30.8-17.82,62-19.38,95.78-3.63,81,38.41,136.18,35.82,213.84,1.34,2.37,2.48-1.15,2.85-1.41,43-37.73,81.76-82.45,122.28-121.59A141.09,141.09,0,0,1,180,290.15M325.16,569.07c68.23-3.85,122.42-40.2,193.09-35-41.12-41.32-84.55-86.6-128.73-127.27-20.63,15-49.64,27.18-84.38,25-32.8-2.07-59.2-16.62-77.93-31.45-38.45,35.39-84.09,79.16-123,116.49-2.64,2.6-6.69,6-5.7,7.91,72.16,5.39,120.78,40.86,191,44.33a325,325,0,0,0,35.73,0M524.63,70.65c.73-.69,2.76-2.1,2.19-3.56-37.46-1-67.11-14.1-97.24-23.62-31-9.74-62.15-18.26-100.86-20.71C271.46,19.09,223.31,39,176.45,50.62c-20.83,5.17-42.38,9.79-64.36,7.87,0-.37-.65-.8-.72,0C154.52,99.43,195.9,142.24,238,184.35c13-9.74,32.1-19.33,51.48-22.89,42.16-7.67,82.63,8.67,105.11,27.18,22.39-19.14,44.87-40.21,67.22-60.77,20.64-19,43.57-38,62.87-57.22m58.72,244.57c5.84-87.68-38.53-141.15-35.79-223.09,0-.45-.15-.88-.72-.73C505.42,133.6,462.11,174,420.29,215.81c17.13,22.21,29.29,59.51,25,95.78-3.21,27.44-14.79,50-26.41,68,36.43,39.63,75.61,81.33,113,119.47,2.33,2.33,5.09,7.38,7.14,5.7,7.15-69.94,39.61-118.3,44.39-189.5M572.6,203.66c8.75,33.56,18.54,69.75,15.71,112.29-5,75.6-41,125.62-45.75,202.34-6-4.63-10.52-11.36-15.74-17.13-30.21-33.29-62.5-66.2-95.1-100.13-4.23-4.4-11.73-15.71-16.43-15.71-4.44,0-7.76,7.11-10.75,10-3.62,3.51-7.18,5-9.27,7.14C434.67,442.19,474,482,514,521.87c5.31,5.39,13.57,10.13,15,18.62C455.12,529.63,397.64,570,325.89,574.05c-51.52,3-91.11-8-130.86-20.72-28.74-9.13-58.29-21.78-90.12-23.59-4.86-.26-12.2,1.88-16.43-2.16-1.16-4.52,4-7.08,6.41-9.29,42.35-39.07,85.19-82,128-121.55-3.92-7.33-11.79-10.12-14.29-17.19-39.29,38-78.3,76.2-117.26,115.15-5.31,5.28-9.81,13-17.92,15,7.07-75-34.58-139.27-35-217.39-.3-57.64,19.46-101,32.91-147.31,6.57-22.65,12-44.63,12.84-71.51,7.84,2.5,12,10.17,17.2,15.76,36.31,38.4,74.33,77.89,111.53,116.53,6.49-6.15,11.73-13.52,20-17.85-21.94-23.12-44.56-45.48-66.46-68.64s-45.95-43.77-66.51-68c40.52,8.26,78.32-7,114.4-16.44,29.43-7.71,58.29-15.21,92.26-17.15,90.12-5.24,147.3,42.46,231.68,45,.32,3.9-4.12,6.5-6.45,8.6-36.27,33.1-74,67.61-110.84,101.55-7.52,6.88-12.73,14.44-22.89,17.89,4.32,5.92,14.21,12.5,18.58,20.71,39-38.34,79.61-76.71,118.71-115.84,5.19-5.16,10.28-11.51,17.2-14.29,2.78,4.35-.35,10.12-.73,15C549,135,563.77,169.83,572.6,203.66"/><path class="cls-2" d="M539.69,347.4h18.62c-9-31.33-21.41-59.2-30.76-90.08h-20c-11.88,29.12-21.9,60-32.87,90.08H494c2.67-6.11,3.82-13.79,7.14-19.3h32.19c2.48,6.08,3.86,13.27,6.41,19.3m7.88-255.27c-2.76,81.94,41.62,135.41,35.77,223.1-4.78,71.19-37.23,119.54-44.37,189.48-2.07,1.69-4.82-3.36-7.15-5.69-37.38-38.14-76.55-79.84-113-119.48,11.62-17.91,23.2-40.51,26.41-68,4.32-36.27-7.83-73.58-25-95.78C462.1,174,505.42,133.6,546.84,91.41c.58-.16.69.26.73.72"/><path class="cls-1" d="M505.34,313h22.93c-3.56-11.89-7.11-23.88-11.47-35-3.33,12.18-7.53,23.43-11.46,35m53,34.36H539.69c-2.56-6-3.94-13.22-6.42-19.3H501.09c-3.32,5.51-4.47,13.18-7.15,19.3H474.65c11-30,21-61,32.86-90.09h20c9.37,30.89,21.79,58.75,30.77,90.09"/><path class="cls-2" d="M528.27,313H505.34c3.93-11.58,8.13-22.81,11.46-35,4.36,11.13,7.91,23.13,11.47,35"/><path class="cls-2" d="M345.92,95.68c13.76-4.31,12.84-26.32,5-34.31-12.41-12.58-42.54-5-65.08-7.15-1.68,28.59-.24,60.31-.73,90.08,19-2.63,43.87,4.7,60.08-2.83,16.66-7.79,20.11-39.56.73-45.79M526.81,67.1c.58,1.45-1.45,2.87-2.18,3.55-19.29,19.23-42.22,38.22-62.87,57.22-22.35,20.56-44.83,41.62-67.22,60.76-22.48-18.49-63-34.85-105.11-27.17C270.06,165,250.9,174.62,238,184.36c-42-42.13-83.43-84.93-126.59-125.86.08-.8.73-.38.73,0,22,1.9,43.53-2.71,64.37-7.87,46.85-11.63,95-31.53,152.26-27.86,38.71,2.44,69.87,11,100.86,20.71C459.7,53,489.35,66.07,526.81,67.1"/><path class="cls-2" d="M518.25,534c-70.67-5.16-124.87,31.19-193.08,35.05a330.19,330.19,0,0,1-35.74,0c-70.17-3.48-118.79-39-190.95-44.34-1-1.91,3.06-5.32,5.7-7.91,38.94-37.34,84.58-81.1,123-116.49,18.73,14.83,45.13,29.38,77.93,31.45,34.74,2.15,63.75-10,84.38-25,44.2,40.67,87.61,85.95,128.73,127.27"/><path class="cls-1" d="M303.73,90c16.84.61,42,2.87,33.56-17.16-6.62-5.73-21.83-2.9-33.56-3.55Zm33.56,36.51c4.2-3.71,5.84-12.78,1.44-17.89-6-7-22.43-2-35-3.6v24.31c10.31-1.44,26.94,3.06,33.56-2.82m13.64-65.09c7.83,8,8.75,30-5,34.32,19.37,6.22,15.94,38-.72,45.79-16.21,7.52-41.06.18-60.09,2.82.5-29.77-.95-61.5.73-90.08,22.55,2.11,52.66-5.43,65.09,7.15"/><path class="cls-2" d="M338.73,108.57c4.41,5.11,2.75,14.18-1.45,17.89-6.61,5.88-23.23,1.36-33.56,2.82V105c12.57,1.57,29-3.36,35,3.6"/><path class="cls-2" d="M337.28,72.79c8.41,20-16.7,17.78-33.56,17.17V69.25c11.73.63,26.95-2.19,33.56,3.54"/><path class="cls-2" d="M160.7,338.12V248H133.5c-5.09,23.77-10.37,47.31-16.4,70.09-5.43-23.43-11-46.7-16.47-70.09H73.41v90.13h17.2c.5-24.31-1-50.53.73-73.66,4.81,25.19,11,49.07,16.43,73.66h18.62c5.65-24.59,10.88-49.65,17.11-73.66v73.66Zm48.62-128c-14.29,19.57-28,46.43-29.31,80a141.15,141.15,0,0,0,24.31,84.43C163.8,413.72,125,458.44,82.05,496.16c-.38.26-1.53,3.77-2.86,1.4,2.59-77.65-39.45-132.84-35.82-213.83,1.57-33.78,9.94-65,19.38-95.78,9-29.44,21.59-59,25-90.13.69-6.19-.26-10.09.73-15.71,40.09,42.35,82.33,86.42,120.85,128"/><path class="cls-1" d="M160.71,248v90.13h-17.2V264.47c-6.24,24-11.46,49.07-17.13,73.65h-18.6c-5.43-24.58-11.63-48.47-16.44-73.65-1.68,23.11-.23,49.34-.73,73.65H73.41V248h27.22c5.43,23.4,11,46.67,16.47,70.1,6-22.78,11.31-46.33,16.39-70.1Z"/><path d="M309,577.37c-44,0-79.49-10.06-114.83-21.34-6.29-2-12.61-4.16-19-6.34C152.61,542,129.26,534,104.74,532.57c-1.19,0-2.61,0-4.06.14-4.55.31-10.18.71-14.16-3.09l-.59-.57-.2-.78c-1.36-5.36,3-8.74,5.62-10.75.6-.46,1.15-.89,1.6-1.3,21.22-19.58,43-40.5,64-60.72,20.43-19.67,41.53-40,62.35-59.25a35.89,35.89,0,0,0-5.46-5.65,35.93,35.93,0,0,1-6-6.37C166.2,424.5,128.72,461.31,93.34,496.7,92,498,90.76,499.47,89.48,501c-4,4.6-8.49,9.83-15.4,11.52l-3.86.94.37-3.95c3.73-39.58-6.14-75.62-16.59-113.78C45,363,35.77,329.09,35.58,292.34c-.25-45,11.67-81.54,23.2-116.88,3.33-10.2,6.76-20.74,9.81-31.22,7.25-25,11.92-45.54,12.74-70.81l.12-3.72L85,70.83c6.6,2.08,10.83,7.34,14.57,12,1.26,1.57,2.52,3.12,3.85,4.54,35,37,71.87,75.33,107.52,112.38l2,2.06c1.12-1.14,2.22-2.3,3.32-3.47,3.65-3.88,7.41-7.86,12.16-11-9.89-10.38-19.92-20.62-29.95-30.85-11.42-11.67-22.84-23.34-34.08-35.22-8.67-9.17-17.89-18.15-26.81-26.83C124.12,81.34,110.21,67.8,97.78,53.19L92.48,47l8,1.63c32.48,6.61,63.37-2.27,93.24-10.86,6.68-1.93,13.3-3.83,19.87-5.54,28.6-7.51,58.18-15.27,92.83-17.25,49.28-2.86,89.25,10.07,127.9,22.58C466.64,48,500,58.79,538.37,60l2.54.08.19,2.53c.36,4.64-3.47,7.72-6,9.76-.5.4-1,.79-1.39,1.16C497.46,106.56,459.78,141.07,422.9,175c-1.85,1.69-3.56,3.41-5.22,5.11-4.3,4.36-8.72,8.85-14.91,11.83,1.32,1.38,2.85,2.83,4.44,4.32a75.44,75.44,0,0,1,10,10.77c15.12-14.85,30.48-29.7,45.89-44.61,23.19-22.42,47.18-45.61,70.28-68.74,1-1,2-2,3-3,4.44-4.62,9-9.41,15.18-11.88l2.16-.87,1.26,2c2.59,4,1.5,8.49.55,12.44a29.77,29.77,0,0,0-.83,4.32c-2.13,29.17,6,56.34,13.88,82.61,2.39,8,4.75,15.87,6.8,23.7l.6,2.31c8.43,32.28,18,68.87,15.19,110.89-2.52,37.81-12.86,69.72-22.87,100.59-10.09,31.16-20.53,63.39-22.88,101.72l-.33,5.33-4.22-3.26c-4.35-3.35-7.91-7.69-11.36-11.88-1.56-1.89-3.11-3.78-4.74-5.58-23.58-26-47.93-51.23-73.72-78L429.69,403c-1.2-1.24-2.66-3-4.23-5-2.42-2.95-8.09-9.89-10.17-9.89h0c-1.67,0-4,3.11-5.63,5.38a32.3,32.3,0,0,1-3.13,3.84,40.68,40.68,0,0,1-6.07,4.71l-1,.65,24.85,25c30.38,30.65,60.82,61.34,91.64,92.11,1.28,1.3,2.73,2.54,4.2,3.82,4.85,4.18,10.34,8.93,11.6,16.31l.66,3.83-3.85-.56C486.31,537.07,450,547.7,411.66,559c-27.14,8-55.21,16.19-85.61,17.92Q317.32,577.38,309,577.37ZM104,526.9c.37,0,.74,0,1.09,0,25.29,1.43,49,9.55,72,17.41,6.34,2.17,12.62,4.32,18.86,6.3,39.27,12.54,78.68,23.52,129.84,20.59,29.75-1.7,57.5-9.84,84.33-17.7,36-10.56,73.1-21.46,114.78-16.45-1.86-3.48-5.15-6.32-8.36-9.1-1.59-1.37-3.15-2.73-4.52-4.12-30.82-30.75-61.26-61.46-91.65-92.11l-29-29.26,2-2a25.65,25.65,0,0,1,4.06-3.13,35.31,35.31,0,0,0,5.28-4.07,25.69,25.69,0,0,0,2.51-3.13c2.53-3.42,5.66-7.68,10.17-7.68h.06c4.39,0,8.79,5,14.52,12,1.46,1.79,2.8,3.44,3.92,4.6l21.32,22.12c25.82,26.76,50.21,52,73.83,78.08,1.69,1.87,3.31,3.83,4.93,5.79,2.11,2.57,4.15,5.05,6.31,7.27,3-36.51,13-67.41,22.73-97.33,9.9-30.54,20.13-62.11,22.61-99.23,2.73-41.11-6.29-75.66-15-109.08l-.6-2.31c-2-7.77-4.37-15.59-6.74-23.5-8-26.77-16.31-54.44-14.11-84.66A35.31,35.31,0,0,1,550,91a22,22,0,0,0,.88-5.61c-3.83,2.28-7.19,5.78-10.46,9.18-1,1.06-2,2.12-3.06,3.13-23.13,23.16-47.13,46.37-70.33,68.81-16.26,15.72-32.47,31.38-48.39,47l-2.7,2.67-1.78-3.36c-2.39-4.5-6.68-8.54-10.83-12.46a63,63,0,0,1-7.52-7.9l-2.27-3.11,3.64-1.23c7-2.38,11.38-6.84,16.47-12,1.74-1.76,3.51-3.55,5.43-5.31C456,136.91,493.64,102.39,529.92,69.29c.49-.44,1.05-.89,1.63-1.37a23.14,23.14,0,0,0,2.77-2.47C496.83,63.69,464.19,53.13,432.6,42.9,394.44,30.54,355,17.76,306.76,20.58c-34.09,2-63.39,9.64-91.72,17.08-6.53,1.69-13.1,3.59-19.74,5.5-28.13,8.1-57.12,16.45-88,12.3,10.9,12.19,22.74,23.72,34.25,34.91,9,8.72,18.23,17.74,27,27,11.21,11.85,22.61,23.49,34,35.14,10.87,11.1,21.75,22.21,32.46,33.49l2.58,2.73-3.33,1.73c-5.47,2.85-9.54,7.16-13.85,11.73-1.81,1.92-3.63,3.84-5.55,5.66l-2,1.93-5.91-6.14c-35.66-37-72.54-75.37-107.57-112.43-1.43-1.52-2.77-3.18-4.13-4.86-2.65-3.29-5.19-6.43-8.37-8.47-1.38,26.75-7.29,49-12.78,67.94C71,156.39,67.5,167,64.16,177.21c-11.39,34.91-23.16,71-22.92,115.1.19,36,9.36,69.5,18.22,101.88,10.19,37.2,19.83,72.42,17.14,111.19,3.23-1.91,5.86-5,8.6-8.13,1.38-1.59,2.73-3.16,4.14-4.56,36.18-36.17,74.55-73.85,117.29-115.17l3.17-3.07,1.46,4.16c1.08,3.06,3.51,5.25,6.32,7.78s5.72,5.13,7.8,9l1,1.93-1.61,1.48c-21.32,19.7-43,40.57-64,60.75s-42.79,41.19-64,60.79c-.54.51-1.24,1-2,1.63-2.31,1.78-3.51,2.93-3.65,4.11,2.25,1.45,5.75,1.22,9.12,1C101.58,527,102.82,526.9,104,526.9Z"/><path class="cls-2" d="M315.39,408.83l23.56-.31s17.21-20.7,20.7-44.58c5.43,0,5.75-4.15,5.75-9.24s2.54-10.52-6.08-10.2c0-41.72-31.51-57.65-31.51-98.1,0-13.37,10.5-29.3,10.5-42.36S329.41,177,314.13,177h-4.44c-15.27,0-24.2,14-24.2,27.07S296,233,296,246.4c0,40.45-31.53,56.38-31.53,98.1-8.6-.32-6,5.09-6,10.2s.32,9.24,5.73,9.24c3.51,23.88,20.69,44.58,20.69,44.58l23.57.31Z"/><path d="M315.41,411.66l-31.9-.33-.83-1c-.7-.85-16.74-20.38-21-43.82-6.12-1.37-6.12-8-6.12-11.81,0-.89-.09-1.79-.17-2.67-.26-2.73-.56-5.82,1.59-8.1a7.49,7.49,0,0,1,4.66-2.15c.66-20.29,8.59-34.63,16.26-48.5,7.84-14.16,15.23-27.54,15.23-46.88,0-6.23-2.6-13.46-5.13-20.47-2.64-7.32-5.38-14.9-5.38-21.89,0-14.7,10.12-29.89,27-29.89h4.44c16.91,0,27,15.19,27,29.89,0,7-2.73,14.57-5.37,21.89-2.53,7-5.14,14.24-5.14,20.47,0,19.34,7.4,32.72,15.23,46.88,7.67,13.87,15.59,28.21,16.25,48.5a7.5,7.5,0,0,1,4.68,2.15c2.16,2.29,1.86,5.38,1.61,8.11-.08.88-.17,1.77-.17,2.66,0,3.77,0,10.44-6.14,11.81-4.21,23.44-20.26,43-21,43.82l-.83,1Zm-29.17-6,29.14.29,22.19-.29c3.36-4.35,16.38-22.28,19.28-42.18l.36-2.42h2.44c2,0,2.92,0,2.92-6.41,0-1.07.1-2.14.2-3.18.12-1.31.31-3.28-.09-3.7-.2-.21-1.1-.58-3.25-.5l-2.94.12V344.5c0-20.29-7.57-34-15.59-48.49C333.07,281.85,325,267.2,325,246.4c0-7.22,2.77-14.93,5.47-22.38,2.59-7.19,5-14,5-20,0-11.92-8-24.24-21.36-24.24h-4.44c-13.38,0-21.37,12.32-21.37,24.24,0,6,2.45,12.79,5,20,2.69,7.45,5.47,15.16,5.47,22.38,0,20.8-8.1,35.45-15.93,49.61-8,14.5-15.6,28.2-15.6,48.49v2.94l-2.93-.12c-2.77-.09-3.22.46-3.24.49-.39.41-.2,2.38-.08,3.68a31.26,31.26,0,0,1,.21,3.21c0,6.16.83,6.41,2.9,6.41h2.44l.36,2.42C269.88,383.42,282.88,401.35,286.24,405.71Z"/><rect x="274.33" y="350.92" width="75.16" height="5.66"/><path class="cls-1" d="M197,474.2h10.62v35.32h-6.87V485.63c0-.68,0-1.65,0-2.89s0-2.19,0-2.86l-6.69,29.64H187l-6.65-29.64c0,.67,0,1.63,0,2.86s0,2.21,0,2.89v23.89h-6.88V474.2h10.74L190.64,502Z"/><path class="cls-1" d="M224.57,474.2h8.36l12.49,35.32h-8l-2.33-7.26h-13l-2.39,7.26H212Zm-.48,22h9l-4.46-13.9Z"/><path class="cls-1" d="M249.8,474.2h7.73l14,24.63V474.2h6.87v35.32h-7.37l-14.39-25.06v25.06H249.8Z"/><path class="cls-1" d="M292.09,509.52h-7.33V474.2h7.33Z"/><path class="cls-1" d="M324.66,474.2v6.26H314.09v29.06h-7.43V480.46H296.05V474.2Z"/><path class="cls-1" d="M355.31,506.39q-4,4.11-11.57,4.12t-11.58-4.12q-5.37-5.06-5.37-14.57,0-9.72,5.37-14.58,4-4.11,11.58-4.12t11.57,4.12q5.35,4.88,5.35,14.58Q360.66,501.33,355.31,506.39ZM350.7,501q2.58-3.24,2.58-9.2c0-4-.86-7-2.58-9.2a8.43,8.43,0,0,0-7-3.24,8.54,8.54,0,0,0-7,3.23q-2.61,3.24-2.61,9.21t2.61,9.2a8.54,8.54,0,0,0,7,3.23A8.45,8.45,0,0,0,350.7,501Z"/><path class="cls-1" d="M392.63,478a9,9,0,0,1,1.63,5.4,7.88,7.88,0,0,1-1.64,5.2,8.61,8.61,0,0,1-2.69,2,7.86,7.86,0,0,1,4.08,3.11,9.44,9.44,0,0,1,1.37,5.18,10.31,10.31,0,0,1-1.57,5.63,9.75,9.75,0,0,1-6.49,4.56,24.55,24.55,0,0,1-5,.47H366.41V474.2h17.07Q389.95,474.3,392.63,478Zm-19.18,2.38v7.78H382a7.16,7.16,0,0,0,3.74-.87,3.34,3.34,0,0,0,1.43-3.1,3.15,3.15,0,0,0-1.9-3.26,13.2,13.2,0,0,0-4.17-.55Zm0,13.63v9.42H382a8.46,8.46,0,0,0,3.58-.62c1.54-.77,2.32-2.24,2.32-4.41a3.8,3.8,0,0,0-2.25-3.79,9.09,9.09,0,0,0-3.53-.6Z"/><path class="cls-1" d="M411.83,474.2h8.35l12.5,35.32h-8l-2.33-7.26h-13l-2.4,7.26h-7.72Zm-.48,22h9l-4.46-13.9Z"/></svg>